<?xml version="1.0" ?><!DOCTYPE svg  PUBLIC '-//W3C//DTD SVG 1.1//EN'  'http://www.w3.org/Graphics/SVG/1.1/DTD/svg11.dtd'><svg enable-background="new 0 0 128 128" id="Слой_1" version="1.1" viewBox="0 0 128 128" xml:space="preserve" xmlns="http://www.w3.org/2000/svg" xmlns:xlink="http://www.w3.org/1999/xlink"><path d="M119,44H9c-2.8,0-5,2.2-5,5v10c0,2.8,2.2,5,5,5h5l8.6,51.6c0.8,4.8,5,8.4,9.9,8.4h63.1  c4.9,0,9.1-3.5,9.9-8.4L114,64h5c2.8,0,5-2.2,5-5V49C124,46.2,121.8,44,119,44z" fill="#F36258"/><g><g opacity="0.1"><path d="M119,44H9c-2.8,0-5,2.2-5,5v10c0,2.8,2.2,5,5,5h5l1.7,10h96.7l1.7-10h5c2.8,0,5-2.2,5-5V49    C124,46.2,121.8,44,119,44z" fill="#060808"/></g><g><path d="M119,64H9c-2.8,0-5-2.2-5-5V49c0-2.8,2.2-5,5-5h110c2.8,0,5,2.2,5,5v10C124,61.8,121.8,64,119,64z" fill="#F36258"/></g><path d="M27.6,115.6L22,64h-7c-1.7,0-3.2-0.9-4.1-2.2c-0.7-1.1-0.9-2.5-0.7-3.8l1.8-9c0.8-2.7,2.2-5,5-5H9   c-2.8,0-5,2.2-5,5v10c0,2.8,2.2,5,5,5h5l9.3,55.8c0.4,2.4,2.5,4.2,4.9,4.2h9.2C32.6,124,28.4,120.5,27.6,115.6z" fill="#FFFFFF"/><path d="M119,42.5H94.8L65.2,3.1c-0.6-0.8-1.8-0.8-2.4,0L33.2,42.5H9c-3.6,0-6.5,2.9-6.5,6.5v10   c0,3.6,2.9,6.5,6.5,6.5h3.7l9.1,54.6c0.5,3.1,3.2,5.4,6.4,5.4h71.5c3.2,0,5.9-2.3,6.4-5.4l9.1-54.6h3.7c3.6,0,6.5-2.9,6.5-6.5V49   C125.5,45.4,122.6,42.5,119,42.5z M64,6.5l27,36H37L64,6.5z M103.2,119.6c-0.3,1.7-1.7,2.9-3.5,2.9H28.2c-1.7,0-3.2-1.2-3.5-2.9   l-9-54.1h96.5L103.2,119.6z M122.5,59c0,1.9-1.6,3.5-3.5,3.5h-5H14H9c-1.9,0-3.5-1.6-3.5-3.5V49c0-1.9,1.6-3.5,3.5-3.5h22l-3.5,4.6   c-0.3-0.1-0.7-0.1-1-0.1c-2.2,0-4,1.8-4,4s1.8,4,4,4s4-1.8,4-4c0-0.8-0.2-1.5-0.6-2.1l4.8-6.4h58.5l4.8,6.4   c-0.4,0.6-0.6,1.3-0.6,2.1c0,2.2,1.8,4,4,4s4-1.8,4-4s-1.8-4-4-4c-0.4,0-0.7,0.1-1,0.1L97,45.5h22c1.9,0,3.5,1.6,3.5,3.5V59z" fill="#4A374F"/><g><path d="M64.1,115.5c-0.8,0-1.5-0.7-1.5-1.5V74c0-0.8,0.7-1.5,1.5-1.5s1.5,0.7,1.5,1.5v40    C65.6,114.8,64.9,115.5,64.1,115.5z" fill="#4A374F"/></g><g><path d="M84.1,115.5c-0.8,0-1.5-0.7-1.5-1.5V74c0-0.8,0.7-1.5,1.5-1.5s1.5,0.7,1.5,1.5v40    C85.6,114.8,84.9,115.5,84.1,115.5z" fill="#4A374F"/></g><g><path d="M44.1,115.5c-0.8,0-1.5-0.7-1.5-1.5V74c0-0.8,0.7-1.5,1.5-1.5s1.5,0.7,1.5,1.5v40    C45.6,114.8,44.9,115.5,44.1,115.5z" fill="#4A374F"/></g></g></svg>